<svg id="bible-icon" xmlns="http://www.w3.org/2000/svg" width="38.7" height="46.277" viewBox="0 0 38.7 46.277">
  <path id="Path_1" data-name="Path 1" d="M6.436,0H37.459A1.248,1.248,0,0,1,38.7,1.247V36.017c-.056.972-1.305.994-2.652.934H5.978a3.409,3.409,0,0,0,0,6.817H36.045V40.141H38.7v4.61a1.525,1.525,0,0,1-1.519,1.525H6.106A6.134,6.134,0,0,1,0,40.145V6.463A6.467,6.467,0,0,1,6.436,0ZM28.27,12.689v4.527H22.048V31.163H17.541V17.216H11.319V12.689h6.222V7.164h4.508v5.529H28.27Z" fill-rule="evenodd"/>
</svg>
