<svg xmlns="http://www.w3.org/2000/svg" width="41.27" height="40.254" viewBox="0 0 41.27 40.254">
  <path id="github-icon" d="M20.634,7.872a20.636,20.636,0,0,0-6.523,40.213c1.032.191,1.411-.449,1.411-.994,0-.492-.021-2.117-.029-3.84C9.752,44.5,8.542,40.815,8.542,40.815A5.464,5.464,0,0,0,6.251,37.8c-1.872-1.282.142-1.254.142-1.254a4.334,4.334,0,0,1,3.162,2.125c1.842,3.155,4.829,2.241,6.005,1.715a4.4,4.4,0,0,1,1.31-2.76c-4.583-.52-9.4-2.29-9.4-10.2a7.99,7.99,0,0,1,2.126-5.538,7.409,7.409,0,0,1,.2-5.46s1.733-.555,5.676,2.115a19.576,19.576,0,0,1,10.331,0c3.938-2.669,5.67-2.115,5.67-2.115a7.409,7.409,0,0,1,.2,5.46A7.968,7.968,0,0,1,33.8,27.424c0,7.925-4.829,9.668-9.422,10.179a4.929,4.929,0,0,1,1.4,3.82c0,2.759-.024,4.983-.024,5.662,0,.549.372,1.191,1.418.99a20.637,20.637,0,0,0-6.536-40.21v.007Z" transform="translate(0 -7.865)" fill="#b7b7b7" fill-rule="evenodd"/>
</svg>
