<svg id="idea-and-creativity-symbol-of-a-lightbulb-svgrepo-com" xmlns="http://www.w3.org/2000/svg" width="49.083" height="54.249" viewBox="0 0 49.083 54.249">
  <path id="Path_2" data-name="Path 2" d="M58.2,47.145a1.292,1.292,0,0,1-1.292,1.292H46.575a1.292,1.292,0,0,1,0-2.583H56.908A1.292,1.292,0,0,1,58.2,47.145Zm-1.292,1.937H46.575A1.3,1.3,0,0,0,45.35,50.8a1.323,1.323,0,0,0,1.279.871h.019a1.97,1.97,0,0,1,1.762,1.089l.014.027A2.656,2.656,0,0,0,50.8,54.249h1.886a2.654,2.654,0,0,0,2.374-1.467l.014-.027a1.971,1.971,0,0,1,1.762-1.089h.019a1.323,1.323,0,0,0,1.279-.871A1.3,1.3,0,0,0,56.908,49.083ZM51.742,7.75a1.292,1.292,0,0,0,1.292-1.292V1.292a1.292,1.292,0,0,0-2.583,0V6.458A1.292,1.292,0,0,0,51.742,7.75Zm-13.7,4.918a1.291,1.291,0,1,0,1.826-1.826L36.215,7.188a1.291,1.291,0,1,0-1.826,1.826ZM34.95,24.541a1.292,1.292,0,0,0-1.292-1.292H28.492a1.292,1.292,0,0,0,0,2.583h5.167A1.292,1.292,0,0,0,34.95,24.541Zm3.092,11.874-3.653,3.653a1.291,1.291,0,1,0,1.826,1.826l3.653-3.653a1.291,1.291,0,0,0-1.826-1.826Zm27.4,0a1.291,1.291,0,0,0-1.826,1.826l3.653,3.653a1.291,1.291,0,1,0,1.826-1.826Zm9.55-13.165H69.825a1.292,1.292,0,0,0,0,2.583h5.167a1.292,1.292,0,0,0,0-2.583Zm-10.463-10.2a1.287,1.287,0,0,0,.913-.378l3.653-3.653a1.291,1.291,0,0,0-1.826-1.826l-3.653,3.653a1.292,1.292,0,0,0,.913,2.2ZM58.2,43.916a1.292,1.292,0,0,1-1.292,1.292H46.575a1.289,1.289,0,0,1-.074-2.576c-.8-7.268-8.321-8.887-8.321-17.445a13.562,13.562,0,1,1,27.125,0c0,8.558-7.517,10.177-8.321,17.445A1.288,1.288,0,0,1,58.2,43.916ZM48.765,15.248a.97.97,0,0,0-1.262-.534,11.342,11.342,0,0,0-6.694,7.648.969.969,0,0,0,.7,1.18.949.949,0,0,0,.242.031.97.97,0,0,0,.938-.727A9.394,9.394,0,0,1,48.23,16.51.969.969,0,0,0,48.765,15.248Z" transform="translate(-27.2 0)"/>
</svg>
